<?xml version="1.0" encoding="UTF-8" standalone="no"?><svg xmlns="http://www.w3.org/2000/svg" xmlns:xlink="http://www.w3.org/1999/xlink" contentScriptType="application/ecmascript" contentStyleType="text/css" height="861px" preserveAspectRatio="none" style="width:877px;height:861px;background:#FFFFFF;" version="1.1" viewBox="0 0 877 861" width="877px" zoomAndPan="magnify"><defs><filter height="300%" id="f4b12ueghn0wa" width="300%" x="-1" y="-1"><feGaussianBlur result="blurOut" stdDeviation="2.0"/><feColorMatrix in="blurOut" result="blurOut2" type="matrix" values="0 0 0 0 0 0 0 0 0 0 0 0 0 0 0 0 0 0 .4 0"/><feOffset dx="4.0" dy="4.0" in="blurOut2" result="blurOut3"/><feBlend in="SourceGraphic" in2="blurOut3" mode="normal"/></filter></defs><g><line style="stroke:#A80036;stroke-width:1.0;stroke-dasharray:5.0,5.0;" x1="40" x2="40" y1="76.8281" y2="781.8594"/><line style="stroke:#A80036;stroke-width:1.0;stroke-dasharray:5.0,5.0;" x1="296" x2="296" y1="76.8281" y2="781.8594"/><line style="stroke:#A80036;stroke-width:1.0;stroke-dasharray:5.0,5.0;" x1="403" x2="403" y1="76.8281" y2="781.8594"/><line style="stroke:#A80036;stroke-width:1.0;stroke-dasharray:5.0,5.0;" x1="677" x2="677" y1="76.8281" y2="781.8594"/><rect fill="#FEFECE" filter="url(#f4b12ueghn0wa)" height="49.2188" style="stroke:#A80036;stroke-width:1.5;" width="67" x="5" y="22.6094"/><text fill="#000000" font-family="sans-serif" font-size="14" lengthAdjust="spacing" textLength="45" x="16" y="44.1426">Identity</text><text fill="#000000" font-family="sans-serif" font-size="14" lengthAdjust="spacing" textLength="53" x="12" y="61.752">Provider</text><rect fill="#FEFECE" filter="url(#f4b12ueghn0wa)" height="49.2188" style="stroke:#A80036;stroke-width:1.5;" width="67" x="5" y="780.8594"/><text fill="#000000" font-family="sans-serif" font-size="14" lengthAdjust="spacing" textLength="45" x="16" y="802.3926">Identity</text><text fill="#000000" font-family="sans-serif" font-size="14" lengthAdjust="spacing" textLength="53" x="12" y="820.002">Provider</text><rect fill="#FEFECE" filter="url(#f4b12ueghn0wa)" height="31.6094" style="stroke:#A80036;stroke-width:1.5;" width="75" x="257" y="40.2188"/><text fill="#000000" font-family="sans-serif" font-size="14" lengthAdjust="spacing" textLength="61" x="264" y="61.752">Personna</text><rect fill="#FEFECE" filter="url(#f4b12ueghn0wa)" height="31.6094" style="stroke:#A80036;stroke-width:1.5;" width="75" x="257" y="780.8594"/><text fill="#000000" font-family="sans-serif" font-size="14" lengthAdjust="spacing" textLength="61" x="264" y="802.3926">Personna</text><rect fill="#FEFECE" filter="url(#f4b12ueghn0wa)" height="49.2188" style="stroke:#A80036;stroke-width:1.5;" width="51" x="376" y="22.6094"/><text fill="#000000" font-family="sans-serif" font-size="14" lengthAdjust="spacing" textLength="29" x="387" y="44.1426">User</text><text fill="#000000" font-family="sans-serif" font-size="14" lengthAdjust="spacing" textLength="37" x="383" y="61.752">Agent</text><rect fill="#FEFECE" filter="url(#f4b12ueghn0wa)" height="49.2188" style="stroke:#A80036;stroke-width:1.5;" width="51" x="376" y="780.8594"/><text fill="#000000" font-family="sans-serif" font-size="14" lengthAdjust="spacing" textLength="29" x="387" y="802.3926">User</text><text fill="#000000" font-family="sans-serif" font-size="14" lengthAdjust="spacing" textLength="37" x="383" y="820.002">Agent</text><rect fill="#FEFECE" filter="url(#f4b12ueghn0wa)" height="66.8281" style="stroke:#A80036;stroke-width:1.5;" width="67" x="642" y="5"/><text fill="#000000" font-family="sans-serif" font-size="14" lengthAdjust="spacing" textLength="47" x="652" y="26.5332">Service</text><text fill="#000000" font-family="sans-serif" font-size="14" lengthAdjust="spacing" textLength="53" x="649" y="44.1426">Provider</text><text fill="#000000" font-family="sans-serif" font-size="14" lengthAdjust="spacing" textLength="38" x="656.5" y="61.752">(ACS)</text><rect fill="#FEFECE" filter="url(#f4b12ueghn0wa)" height="66.8281" style="stroke:#A80036;stroke-width:1.5;" width="67" x="642" y="780.8594"/><text fill="#000000" font-family="sans-serif" font-size="14" lengthAdjust="spacing" textLength="47" x="652" y="802.3926">Service</text><text fill="#000000" font-family="sans-serif" font-size="14" lengthAdjust="spacing" textLength="53" x="649" y="820.002">Provider</text><text fill="#000000" font-family="sans-serif" font-size="14" lengthAdjust="spacing" textLength="38" x="656.5" y="837.6113">(ACS)</text><polygon fill="#A80036" points="51.5,105.1797,41.5,109.1797,51.5,113.1797,47.5,109.1797" style="stroke:#A80036;stroke-width:1.0;"/><polygon fill="#A80036" points="665.5,105.1797,675.5,109.1797,665.5,113.1797,669.5,109.1797" style="stroke:#A80036;stroke-width:1.0;"/><line style="stroke:#A80036;stroke-width:1.0;" x1="45.5" x2="671.5" y1="109.1797" y2="109.1797"/><text fill="#000000" font-family="sans-serif" font-size="13" font-weight="bold" lengthAdjust="spacing" textLength="7" x="57.5" y="104.3232">1</text><text fill="#000000" font-family="sans-serif" font-size="13" lengthAdjust="spacing" textLength="304" x="68.5" y="104.3232">Establish Trust. Configure Claims. Specify Mappings</text><polygon fill="#A80036" points="391.5,135.5313,401.5,139.5313,391.5,143.5313,395.5,139.5313" style="stroke:#A80036;stroke-width:1.0;"/><line style="stroke:#A80036;stroke-width:1.0;" x1="296.5" x2="397.5" y1="139.5313" y2="139.5313"/><text fill="#000000" font-family="sans-serif" font-size="13" font-weight="bold" lengthAdjust="spacing" textLength="7" x="303.5" y="134.6748">2</text><text fill="#000000" font-family="sans-serif" font-size="13" lengthAdjust="spacing" textLength="71" x="314.5" y="134.6748">HMI Access</text><polygon fill="#A80036" points="665.5,165.8828,675.5,169.8828,665.5,173.8828,669.5,169.8828" style="stroke:#A80036;stroke-width:1.0;"/><line style="stroke:#A80036;stroke-width:1.0;" x1="403.5" x2="671.5" y1="169.8828" y2="169.8828"/><text fill="#000000" font-family="sans-serif" font-size="13" font-weight="bold" lengthAdjust="spacing" textLength="7" x="410.5" y="165.0264">3</text><text fill="#000000" font-family="sans-serif" font-size="13" lengthAdjust="spacing" textLength="94" x="421.5" y="165.0264">Service Request</text><line style="stroke:#A80036;stroke-width:1.0;" x1="677.5" x2="719.5" y1="200.2344" y2="200.2344"/><line style="stroke:#A80036;stroke-width:1.0;" x1="719.5" x2="719.5" y1="200.2344" y2="213.2344"/><line style="stroke:#A80036;stroke-width:1.0;" x1="678.5" x2="719.5" y1="213.2344" y2="213.2344"/><polygon fill="#A80036" points="688.5,209.2344,678.5,213.2344,688.5,217.2344,684.5,213.2344" style="stroke:#A80036;stroke-width:1.0;"/><text fill="#000000" font-family="sans-serif" font-size="13" font-weight="bold" lengthAdjust="spacing" textLength="7" x="684.5" y="195.3779">4</text><text fill="#000000" font-family="sans-serif" font-size="13" lengthAdjust="spacing" textLength="175" x="695.5" y="195.3779">SP initiated flows begins here.</text><line style="stroke:#A80036;stroke-width:1.0;" x1="677.5" x2="719.5" y1="243.5859" y2="243.5859"/><line style="stroke:#A80036;stroke-width:1.0;" x1="719.5" x2="719.5" y1="243.5859" y2="256.5859"/><line style="stroke:#A80036;stroke-width:1.0;" x1="678.5" x2="719.5" y1="256.5859" y2="256.5859"/><polygon fill="#A80036" points="688.5,252.5859,678.5,256.5859,688.5,260.5859,684.5,256.5859" style="stroke:#A80036;stroke-width:1.0;"/><text fill="#000000" font-family="sans-serif" font-size="13" font-weight="bold" lengthAdjust="spacing" textLength="7" x="684.5" y="238.7295">5</text><text fill="#000000" font-family="sans-serif" font-size="13" lengthAdjust="spacing" textLength="79" x="695.5" y="238.7295">IdP Discovery</text><polygon fill="#A80036" points="414.5,282.9375,404.5,286.9375,414.5,290.9375,410.5,286.9375" style="stroke:#A80036;stroke-width:1.0;"/><line style="stroke:#A80036;stroke-width:1.0;" x1="408.5" x2="676.5" y1="286.9375" y2="286.9375"/><text fill="#000000" font-family="sans-serif" font-size="13" font-weight="bold" lengthAdjust="spacing" textLength="7" x="420.5" y="282.0811">6</text><text fill="#000000" font-family="sans-serif" font-size="13" lengthAdjust="spacing" textLength="212" x="431.5" y="282.0811">Redirect with SAML Request (Claim)</text><polygon fill="#A80036" points="51.5,313.2891,41.5,317.2891,51.5,321.2891,47.5,317.2891" style="stroke:#A80036;stroke-width:1.0;"/><line style="stroke:#A80036;stroke-width:1.0;" x1="45.5" x2="402.5" y1="317.2891" y2="317.2891"/><text fill="#000000" font-family="sans-serif" font-size="13" font-weight="bold" lengthAdjust="spacing" textLength="7" x="57.5" y="312.4326">7</text><text fill="#000000" font-family="sans-serif" font-size="13" lengthAdjust="spacing" textLength="177" x="68.5" y="312.4326">Relays SAML Request (Claim)</text><line style="stroke:#A80036;stroke-width:1.0;" x1="40.5" x2="82.5" y1="347.6406" y2="347.6406"/><line style="stroke:#A80036;stroke-width:1.0;" x1="82.5" x2="82.5" y1="347.6406" y2="360.6406"/><line style="stroke:#A80036;stroke-width:1.0;" x1="41.5" x2="82.5" y1="360.6406" y2="360.6406"/><polygon fill="#A80036" points="51.5,356.6406,41.5,360.6406,51.5,364.6406,47.5,360.6406" style="stroke:#A80036;stroke-width:1.0;"/><text fill="#000000" font-family="sans-serif" font-size="13" font-weight="bold" lengthAdjust="spacing" textLength="7" x="47.5" y="342.7842">8</text><text fill="#000000" font-family="sans-serif" font-size="13" lengthAdjust="spacing" textLength="174" x="58.5" y="342.7842">IDP initiated flows begins here</text><line style="stroke:#A80036;stroke-width:1.0;" x1="40.5" x2="82.5" y1="390.9922" y2="390.9922"/><line style="stroke:#A80036;stroke-width:1.0;" x1="82.5" x2="82.5" y1="390.9922" y2="403.9922"/><line style="stroke:#A80036;stroke-width:1.0;" x1="41.5" x2="82.5" y1="403.9922" y2="403.9922"/><polygon fill="#A80036" points="51.5,399.9922,41.5,403.9922,51.5,407.9922,47.5,403.9922" style="stroke:#A80036;stroke-width:1.0;"/><text fill="#000000" font-family="sans-serif" font-size="13" font-weight="bold" lengthAdjust="spacing" textLength="7" x="47.5" y="386.1357">9</text><text fill="#000000" font-family="sans-serif" font-size="13" lengthAdjust="spacing" textLength="87" x="58.5" y="386.1357">ACS Discovery</text><polygon fill="#A80036" points="391.5,430.3438,401.5,434.3438,391.5,438.3438,395.5,434.3438" style="stroke:#A80036;stroke-width:1.0;"/><line style="stroke:#A80036;stroke-width:1.0;" x1="40.5" x2="397.5" y1="434.3438" y2="434.3438"/><text fill="#000000" font-family="sans-serif" font-size="13" font-weight="bold" lengthAdjust="spacing" textLength="14" x="47.5" y="429.4873">10</text><text fill="#000000" font-family="sans-serif" font-size="13" lengthAdjust="spacing" textLength="171" x="65.5" y="429.4873">User Authentication Workflow</text><polygon fill="#A80036" points="307.5,460.6953,297.5,464.6953,307.5,468.6953,303.5,464.6953" style="stroke:#A80036;stroke-width:1.0;"/><polygon fill="#A80036" points="391.5,460.6953,401.5,464.6953,391.5,468.6953,395.5,464.6953" style="stroke:#A80036;stroke-width:1.0;"/><line style="stroke:#A80036;stroke-width:1.0;" x1="301.5" x2="397.5" y1="464.6953" y2="464.6953"/><text fill="#000000" font-family="sans-serif" font-size="13" font-weight="bold" lengthAdjust="spacing" textLength="14" x="313.5" y="459.8389">11</text><text fill="#000000" font-family="sans-serif" font-size="13" lengthAdjust="spacing" textLength="65" x="331.5" y="459.8389">Credentials</text><polygon fill="#A80036" points="51.5,491.0469,41.5,495.0469,51.5,499.0469,47.5,495.0469" style="stroke:#A80036;stroke-width:1.0;"/><line style="stroke:#A80036;stroke-width:1.0;" x1="45.5" x2="402.5" y1="495.0469" y2="495.0469"/><text fill="#000000" font-family="sans-serif" font-size="13" font-weight="bold" lengthAdjust="spacing" textLength="14" x="57.5" y="490.1904">12</text><text fill="#000000" font-family="sans-serif" font-size="13" lengthAdjust="spacing" textLength="165" x="75.5" y="490.1904">Authentication workflow data</text><line style="stroke:#A80036;stroke-width:1.0;" x1="40.5" x2="82.5" y1="525.3984" y2="525.3984"/><line style="stroke:#A80036;stroke-width:1.0;" x1="82.5" x2="82.5" y1="525.3984" y2="538.3984"/><line style="stroke:#A80036;stroke-width:1.0;" x1="41.5" x2="82.5" y1="538.3984" y2="538.3984"/><polygon fill="#A80036" points="51.5,534.3984,41.5,538.3984,51.5,542.3984,47.5,538.3984" style="stroke:#A80036;stroke-width:1.0;"/><text fill="#000000" font-family="sans-serif" font-size="13" font-weight="bold" lengthAdjust="spacing" textLength="14" x="47.5" y="520.542">13</text><text fill="#000000" font-family="sans-serif" font-size="13" lengthAdjust="spacing" textLength="125" x="65.5" y="520.542">Process Identity Data</text><line style="stroke:#A80036;stroke-width:1.0;" x1="40.5" x2="82.5" y1="568.75" y2="568.75"/><line style="stroke:#A80036;stroke-width:1.0;" x1="82.5" x2="82.5" y1="568.75" y2="581.75"/><line style="stroke:#A80036;stroke-width:1.0;" x1="41.5" x2="82.5" y1="581.75" y2="581.75"/><polygon fill="#A80036" points="51.5,577.75,41.5,581.75,51.5,585.75,47.5,581.75" style="stroke:#A80036;stroke-width:1.0;"/><text fill="#000000" font-family="sans-serif" font-size="13" font-weight="bold" lengthAdjust="spacing" textLength="14" x="47.5" y="563.8936">14</text><text fill="#000000" font-family="sans-serif" font-size="13" lengthAdjust="spacing" textLength="224" x="65.5" y="563.8936">if Authenticated, build SAML Assertion</text><polygon fill="#A80036" points="391.5,608.1016,401.5,612.1016,391.5,616.1016,395.5,612.1016" style="stroke:#A80036;stroke-width:1.0;"/><line style="stroke:#A80036;stroke-width:1.0;" x1="40.5" x2="397.5" y1="612.1016" y2="612.1016"/><text fill="#000000" font-family="sans-serif" font-size="13" font-weight="bold" lengthAdjust="spacing" textLength="14" x="47.5" y="607.2451">15</text><text fill="#000000" font-family="sans-serif" font-size="13" lengthAdjust="spacing" textLength="165" x="65.5" y="607.2451">SAML Response (Assertion)</text><polygon fill="#A80036" points="665.5,638.4531,675.5,642.4531,665.5,646.4531,669.5,642.4531" style="stroke:#A80036;stroke-width:1.0;"/><line style="stroke:#A80036;stroke-width:1.0;" x1="403.5" x2="671.5" y1="642.4531" y2="642.4531"/><text fill="#000000" font-family="sans-serif" font-size="13" font-weight="bold" lengthAdjust="spacing" textLength="14" x="410.5" y="637.5967">16</text><text fill="#000000" font-family="sans-serif" font-size="13" lengthAdjust="spacing" textLength="165" x="428.5" y="637.5967">SAML Response (Assertion)</text><polygon fill="#A80036" points="414.5,668.8047,404.5,672.8047,414.5,676.8047,410.5,672.8047" style="stroke:#A80036;stroke-width:1.0;"/><line style="stroke:#A80036;stroke-width:1.0;" x1="408.5" x2="676.5" y1="672.8047" y2="672.8047"/><text fill="#000000" font-family="sans-serif" font-size="13" font-weight="bold" lengthAdjust="spacing" textLength="14" x="420.5" y="667.9482">17</text><text fill="#000000" font-family="sans-serif" font-size="13" lengthAdjust="spacing" textLength="232" x="438.5" y="667.9482">if Assertion=ok, deliver Security Context</text><polygon fill="#A80036" points="665.5,699.1563,675.5,703.1563,665.5,707.1563,669.5,703.1563" style="stroke:#A80036;stroke-width:1.0;"/><line style="stroke:#A80036;stroke-width:1.0;" x1="403.5" x2="671.5" y1="703.1563" y2="703.1563"/><text fill="#000000" font-family="sans-serif" font-size="13" font-weight="bold" lengthAdjust="spacing" textLength="14" x="410.5" y="698.2998">18</text><text fill="#000000" font-family="sans-serif" font-size="13" lengthAdjust="spacing" textLength="107" x="428.5" y="698.2998">Request Resource</text><polygon fill="#A80036" points="414.5,729.5078,404.5,733.5078,414.5,737.5078,410.5,733.5078" style="stroke:#A80036;stroke-width:1.0;"/><line style="stroke:#A80036;stroke-width:1.0;" x1="408.5" x2="676.5" y1="733.5078" y2="733.5078"/><text fill="#000000" font-family="sans-serif" font-size="13" font-weight="bold" lengthAdjust="spacing" textLength="14" x="420.5" y="728.6514">19</text><text fill="#000000" font-family="sans-serif" font-size="13" lengthAdjust="spacing" textLength="117" x="438.5" y="728.6514">Resource Response</text><polygon fill="#A80036" points="307.5,759.8594,297.5,763.8594,307.5,767.8594,303.5,763.8594" style="stroke:#A80036;stroke-width:1.0;"/><line style="stroke:#A80036;stroke-width:1.0;" x1="301.5" x2="402.5" y1="763.8594" y2="763.8594"/><text fill="#000000" font-family="sans-serif" font-size="13" font-weight="bold" lengthAdjust="spacing" textLength="14" x="313.5" y="759.0029">20</text><text fill="#000000" font-family="sans-serif" font-size="13" lengthAdjust="spacing" textLength="23" x="331.5" y="759.0029">HMI</text><!--MD5=[f7c1f52b1292228c0c3ba113872556b9]
@startuml
participant idp as "Identity\nProvider"
participant user as "Personna"
participant ua as "User\nAgent"
participant sp as "Service\nProvider\n(ACS)"


autonumber
idp<->sp: Establish Trust. Configure Claims. Specify Mappings
user->ua: HMI Access
ua->sp: Service Request
sp->sp: SP initiated flows begins here. 
sp->sp: IdP Discovery
sp->ua: Redirect with SAML Request (Claim)
ua->idp: Relays SAML Request (Claim)
idp->idp: IDP initiated flows begins here
idp->idp: ACS Discovery
idp->ua: User Authentication Workflow
ua<->user: Credentials
ua->idp: Authentication workflow data
idp->idp: Process Identity Data
idp->idp: if Authenticated, build SAML Assertion
idp->ua: SAML Response (Assertion)
ua->sp: SAML Response (Assertion)
sp->ua: if Assertion=ok, deliver Security Context
ua->sp: Request Resource
sp->ua: Resource Response
ua->user: HMI

@enduml

PlantUML version 1.2021.7(Sun May 23 15:40:07 EEST 2021)
(GPL source distribution)
Java Runtime: Java(TM) SE Runtime Environment
JVM: Java HotSpot(TM) Client VM
Default Encoding: Cp1252
Language: en
Country: US
--></g></svg>